<?xml version="1.0" encoding="utf-8"?>
<svg width="44" height="43" viewBox="0 0 44 43" fill="none" xmlns="http://www.w3.org/2000/svg">
  <path d="M44 7.52551L43.9954 36.3019L22.3469 43L22.3514 14.2259L44 7.52551Z" fill="#4F4F50"/>
  <path d="M22.3469 43L0 35.4745L0.00457928 6.70044L22.3515 14.226L22.3469 43Z" fill="#343435"/>
  <path d="M7.46423 11.0322C6.19348 10.6034 5.19748 10.8306 4.52891 11.5884V10.2766L1.27075 9.18036V20.6691L4.52662 21.7677V16.1033C4.52662 13.971 5.79737 13.4426 7.36806 13.971C7.77921 14.119 8.17494 14.3076 8.54952 14.5342V11.5398C8.20128 11.3424 7.83843 11.1727 7.46423 11.0322Z" fill="#EE4036"/>
  <path d="M14.8346 22.31C13.2639 21.7862 11.9931 20.1152 11.9931 18.5229C11.9931 16.9307 13.2639 16.1218 14.8369 16.6503C16.4099 17.1787 17.6806 18.8474 17.6806 20.4397C17.6806 22.0319 16.4328 22.8501 14.8346 22.31ZM14.0744 13.2595C11.1414 12.2698 8.80826 14.1518 8.80826 17.4499C8.80826 20.7479 11.1437 24.2268 14.0744 25.2164C15.6772 25.7518 16.893 25.4853 17.6806 24.5582V26.1898L20.9388 27.2861V15.8043L17.6829 14.708V16.3466C16.9191 14.8845 15.626 13.7782 14.0744 13.2595Z" fill="#EE4036"/>
  <path d="M4.52662 23.8791L1.26846 22.7828V34.267L4.52433 35.3656L4.52662 23.8791Z" fill="#EE4036"/>
  <path d="M16.332 27.6222C15.0361 27.1865 13.9737 27.4576 13.2593 28.3175V26.8226L10.0012 25.7263V37.2104L13.2593 38.309V32.2158C13.2593 30.7186 14.1385 30.0303 15.5009 30.4892C16.166 30.7201 16.7415 31.1586 17.1448 31.7417C17.548 32.3248 17.758 33.0223 17.7447 33.7339V39.8178L21.0029 40.9141V34.4107C21.0029 31.1659 19.2467 28.6026 16.3343 27.6222" fill="#EE4036"/>
  <path d="M22.3515 14.2259L0.00457764 6.70043L21.6531 0L44 7.52552L22.3515 14.2259Z" fill="#424244"/>
</svg>